<svg xmlns="http://www.w3.org/2000/svg" viewBox="0 0 1200 920" width="1200" height="920"><rect x="0" y="0" width="1200" height="920" fill="#ffffff"/><rect x="0" y="0" width="1200" height="56" rx="0" fill="#ffffff" stroke="#bdbdbd" stroke-width="1"/><line x1="0" y1="56" x2="1200" y2="56" stroke="#bdbdbd" stroke-width="1.5"/><rect x="24" y="16" width="24" height="24" rx="3" fill="none" stroke="#8a8a8a" stroke-width="1.2"/><text x="60" y="34" font-family="Helvetica, Arial, sans-serif" font-size="15" font-weight="700" fill="#2b2b2b" text-anchor="start">Sistema de Gestión de Inventarios</text><rect x="1140" y="16" width="24" height="24" rx="3" fill="none" stroke="#8a8a8a" stroke-width="1.2"/><text x="1124" y="34" font-family="Helvetica, Arial, sans-serif" font-size="11" font-weight="normal" fill="#8a8a8a" text-anchor="end">Nombre Usuario · Rol</text><rect x="0" y="56" width="210" height="794" rx="0" fill="#fafafa" stroke="#bdbdbd" stroke-width="1"/><rect x="24" y="70" width="14" height="14" rx="3" fill="none" stroke="#8a8a8a" stroke-width="1.2"/><text x="50" y="85" font-family="Helvetica, Arial, sans-serif" font-size="12.5" font-weight="normal" fill="#555" text-anchor="start">Panel principal</text><rect x="10" y="106" width="190" height="30" rx="4" fill="#e7ebee" stroke="none" stroke-width="1.5"/><rect x="24" y="112" width="14" height="14" rx="3" fill="none" stroke="#8a8a8a" stroke-width="1.2"/><text x="50" y="127" font-family="Helvetica, Arial, sans-serif" font-size="12.5" font-weight="600" fill="#2b2b2b" text-anchor="start">Productos</text><rect x="24" y="154" width="14" height="14" rx="3" fill="none" stroke="#8a8a8a" stroke-width="1.2"/><text x="50" y="169" font-family="Helvetica, Arial, sans-serif" font-size="12.5" font-weight="normal" fill="#555" text-anchor="start">Categorías</text><rect x="24" y="196" width="14" height="14" rx="3" fill="none" stroke="#8a8a8a" stroke-width="1.2"/><text x="50" y="211" font-family="Helvetica, Arial, sans-serif" font-size="12.5" font-weight="normal" fill="#555" text-anchor="start">Inventario</text><rect x="24" y="238" width="14" height="14" rx="3" fill="none" stroke="#8a8a8a" stroke-width="1.2"/><text x="50" y="253" font-family="Helvetica, Arial, sans-serif" font-size="12.5" font-weight="normal" fill="#555" text-anchor="start">Movimientos</text><rect x="24" y="280" width="14" height="14" rx="3" fill="none" stroke="#8a8a8a" stroke-width="1.2"/><text x="50" y="295" font-family="Helvetica, Arial, sans-serif" font-size="12.5" font-weight="normal" fill="#555" text-anchor="start">Usuarios</text><rect x="24" y="322" width="14" height="14" rx="3" fill="none" stroke="#8a8a8a" stroke-width="1.2"/><text x="50" y="337" font-family="Helvetica, Arial, sans-serif" font-size="12.5" font-weight="normal" fill="#555" text-anchor="start">Auditoría</text><text x="240" y="100" font-family="Helvetica, Arial, sans-serif" font-size="20" font-weight="700" fill="#2b2b2b" text-anchor="start">Productos</text><text x="240" y="139" font-family="Helvetica, Arial, sans-serif" font-size="11" font-weight="normal" fill="#8a8a8a" text-anchor="start">Buscar por nombre, código o categoría</text><rect x="240" y="145" width="320" height="34" rx="3" fill="#ffffff" stroke="#bdbdbd" stroke-width="1.2"/><rect x="580" y="128" width="160" height="34" rx="4" fill="#ffffff" stroke="#bdbdbd" stroke-width="1.2"/><text x="590" y="150" font-family="Helvetica, Arial, sans-serif" font-size="11.5" font-weight="normal" fill="#555" text-anchor="start">Categoría ▾</text><rect x="750" y="128" width="160" height="34" rx="4" fill="#ffffff" stroke="#bdbdbd" stroke-width="1.2"/><text x="760" y="150" font-family="Helvetica, Arial, sans-serif" font-size="11.5" font-weight="normal" fill="#555" text-anchor="start">Estado ▾</text><rect x="980" y="128" width="190" height="34" rx="4" fill="#5b6b7a" stroke="#2b2b2b" stroke-width="1.2"/><text x="1075.0" y="149.0" font-family="Helvetica, Arial, sans-serif" font-size="12" font-weight="600" fill="#ffffff" text-anchor="middle">+ Nuevo producto</text><rect x="240" y="195" width="930" height="450" rx="0" fill="#ffffff" stroke="#bdbdbd" stroke-width="1.2"/><rect x="240" y="195" width="930" height="34" rx="0" fill="#eef0f2" stroke="#bdbdbd" stroke-width="1"/><text x="250" y="217" font-family="Helvetica, Arial, sans-serif" font-size="11.5" font-weight="700" fill="#444" text-anchor="start">Código</text><text x="370.9" y="217" font-family="Helvetica, Arial, sans-serif" font-size="11.5" font-weight="700" fill="#444" text-anchor="start">Nombre</text><text x="631.3" y="217" font-family="Helvetica, Arial, sans-serif" font-size="11.5" font-weight="700" fill="#444" text-anchor="start">Categoría</text><text x="798.6999999999999" y="217" font-family="Helvetica, Arial, sans-serif" font-size="11.5" font-weight="700" fill="#444" text-anchor="start">Existencias</text><text x="938.1999999999999" y="217" font-family="Helvetica, Arial, sans-serif" font-size="11.5" font-weight="700" fill="#444" text-anchor="start">Estado</text><text x="1059.1" y="217" font-family="Helvetica, Arial, sans-serif" font-size="11.5" font-weight="700" fill="#444" text-anchor="start">Acciones</text><line x1="240" y1="229.0" x2="1170" y2="229.0" stroke="#e5e5e5" stroke-width="1"/><rect x="250" y="251.0" width="60.54" height="7" rx="0" fill="#f4f4f4" stroke="none" stroke-width="1.5"/><rect x="370.9" y="251.0" width="144.24" height="7" rx="0" fill="#f4f4f4" stroke="none" stroke-width="1.5"/><rect x="631.3" y="251.0" width="88.44" height="7" rx="0" fill="#f4f4f4" stroke="none" stroke-width="1.5"/><rect x="798.6999999999999" y="251.0" width="71.7" height="7" rx="0" fill="#f4f4f4" stroke="none" stroke-width="1.5"/><rect x="938.1999999999999" y="251.0" width="60.54" height="7" rx="0" fill="#f4f4f4" stroke="none" stroke-width="1.5"/><rect x="1059.1" y="251.0" width="60.54" height="7" rx="0" fill="#f4f4f4" stroke="none" stroke-width="1.5"/><line x1="240" y1="281.0" x2="1170" y2="281.0" stroke="#e5e5e5" stroke-width="1"/><rect x="250" y="303.0" width="60.54" height="7" rx="0" fill="#f4f4f4" stroke="none" stroke-width="1.5"/><rect x="370.9" y="303.0" width="144.24" height="7" rx="0" fill="#f4f4f4" stroke="none" stroke-width="1.5"/><rect x="631.3" y="303.0" width="88.44" height="7" rx="0" fill="#f4f4f4" stroke="none" stroke-width="1.5"/><rect x="798.6999999999999" y="303.0" width="71.7" height="7" rx="0" fill="#f4f4f4" stroke="none" stroke-width="1.5"/><rect x="938.1999999999999" y="303.0" width="60.54" height="7" rx="0" fill="#f4f4f4" stroke="none" stroke-width="1.5"/><rect x="1059.1" y="303.0" width="60.54" height="7" rx="0" fill="#f4f4f4" stroke="none" stroke-width="1.5"/><line x1="240" y1="333.0" x2="1170" y2="333.0" stroke="#e5e5e5" stroke-width="1"/><rect x="250" y="355.0" width="60.54" height="7" rx="0" fill="#f4f4f4" stroke="none" stroke-width="1.5"/><rect x="370.9" y="355.0" width="144.24" height="7" rx="0" fill="#f4f4f4" stroke="none" stroke-width="1.5"/><rect x="631.3" y="355.0" width="88.44" height="7" rx="0" fill="#f4f4f4" stroke="none" stroke-width="1.5"/><rect x="798.6999999999999" y="355.0" width="71.7" height="7" rx="0" fill="#f4f4f4" stroke="none" stroke-width="1.5"/><rect x="938.1999999999999" y="355.0" width="60.54" height="7" rx="0" fill="#f4f4f4" stroke="none" stroke-width="1.5"/><rect x="1059.1" y="355.0" width="60.54" height="7" rx="0" fill="#f4f4f4" stroke="none" stroke-width="1.5"/><line x1="240" y1="385.0" x2="1170" y2="385.0" stroke="#e5e5e5" stroke-width="1"/><rect x="250" y="407.0" width="60.54" height="7" rx="0" fill="#f4f4f4" stroke="none" stroke-width="1.5"/><rect x="370.9" y="407.0" width="144.24" height="7" rx="0" fill="#f4f4f4" stroke="none" stroke-width="1.5"/><rect x="631.3" y="407.0" width="88.44" height="7" rx="0" fill="#f4f4f4" stroke="none" stroke-width="1.5"/><rect x="798.6999999999999" y="407.0" width="71.7" height="7" rx="0" fill="#f4f4f4" stroke="none" stroke-width="1.5"/><rect x="938.1999999999999" y="407.0" width="60.54" height="7" rx="0" fill="#f4f4f4" stroke="none" stroke-width="1.5"/><rect x="1059.1" y="407.0" width="60.54" height="7" rx="0" fill="#f4f4f4" stroke="none" stroke-width="1.5"/><line x1="240" y1="437.0" x2="1170" y2="437.0" stroke="#e5e5e5" stroke-width="1"/><rect x="250" y="459.0" width="60.54" height="7" rx="0" fill="#f4f4f4" stroke="none" stroke-width="1.5"/><rect x="370.9" y="459.0" width="144.24" height="7" rx="0" fill="#f4f4f4" stroke="none" stroke-width="1.5"/><rect x="631.3" y="459.0" width="88.44" height="7" rx="0" fill="#f4f4f4" stroke="none" stroke-width="1.5"/><rect x="798.6999999999999" y="459.0" width="71.7" height="7" rx="0" fill="#f4f4f4" stroke="none" stroke-width="1.5"/><rect x="938.1999999999999" y="459.0" width="60.54" height="7" rx="0" fill="#f4f4f4" stroke="none" stroke-width="1.5"/><rect x="1059.1" y="459.0" width="60.54" height="7" rx="0" fill="#f4f4f4" stroke="none" stroke-width="1.5"/><line x1="240" y1="489.0" x2="1170" y2="489.0" stroke="#e5e5e5" stroke-width="1"/><rect x="250" y="511.0" width="60.54" height="7" rx="0" fill="#f4f4f4" stroke="none" stroke-width="1.5"/><rect x="370.9" y="511.0" width="144.24" height="7" rx="0" fill="#f4f4f4" stroke="none" stroke-width="1.5"/><rect x="631.3" y="511.0" width="88.44" height="7" rx="0" fill="#f4f4f4" stroke="none" stroke-width="1.5"/><rect x="798.6999999999999" y="511.0" width="71.7" height="7" rx="0" fill="#f4f4f4" stroke="none" stroke-width="1.5"/><rect x="938.1999999999999" y="511.0" width="60.54" height="7" rx="0" fill="#f4f4f4" stroke="none" stroke-width="1.5"/><rect x="1059.1" y="511.0" width="60.54" height="7" rx="0" fill="#f4f4f4" stroke="none" stroke-width="1.5"/><line x1="240" y1="541.0" x2="1170" y2="541.0" stroke="#e5e5e5" stroke-width="1"/><rect x="250" y="563.0" width="60.54" height="7" rx="0" fill="#f4f4f4" stroke="none" stroke-width="1.5"/><rect x="370.9" y="563.0" width="144.24" height="7" rx="0" fill="#f4f4f4" stroke="none" stroke-width="1.5"/><rect x="631.3" y="563.0" width="88.44" height="7" rx="0" fill="#f4f4f4" stroke="none" stroke-width="1.5"/><rect x="798.6999999999999" y="563.0" width="71.7" height="7" rx="0" fill="#f4f4f4" stroke="none" stroke-width="1.5"/><rect x="938.1999999999999" y="563.0" width="60.54" height="7" rx="0" fill="#f4f4f4" stroke="none" stroke-width="1.5"/><rect x="1059.1" y="563.0" width="60.54" height="7" rx="0" fill="#f4f4f4" stroke="none" stroke-width="1.5"/><line x1="240" y1="593.0" x2="1170" y2="593.0" stroke="#e5e5e5" stroke-width="1"/><rect x="250" y="615.0" width="60.54" height="7" rx="0" fill="#f4f4f4" stroke="none" stroke-width="1.5"/><rect x="370.9" y="615.0" width="144.24" height="7" rx="0" fill="#f4f4f4" stroke="none" stroke-width="1.5"/><rect x="631.3" y="615.0" width="88.44" height="7" rx="0" fill="#f4f4f4" stroke="none" stroke-width="1.5"/><rect x="798.6999999999999" y="615.0" width="71.7" height="7" rx="0" fill="#f4f4f4" stroke="none" stroke-width="1.5"/><rect x="938.1999999999999" y="615.0" width="60.54" height="7" rx="0" fill="#f4f4f4" stroke="none" stroke-width="1.5"/><rect x="1059.1" y="615.0" width="60.54" height="7" rx="0" fill="#f4f4f4" stroke="none" stroke-width="1.5"/><line x1="360.9" y1="229" x2="360.9" y2="645" stroke="#eeeeee" stroke-width="1"/><line x1="621.3" y1="229" x2="621.3" y2="645" stroke="#eeeeee" stroke-width="1"/><line x1="788.6999999999999" y1="229" x2="788.6999999999999" y2="645" stroke="#eeeeee" stroke-width="1"/><line x1="928.1999999999999" y1="229" x2="928.1999999999999" y2="645" stroke="#eeeeee" stroke-width="1"/><line x1="1049.1" y1="229" x2="1049.1" y2="645" stroke="#eeeeee" stroke-width="1"/><text x="240" y="675" font-family="Helvetica, Arial, sans-serif" font-size="11" font-weight="normal" fill="#8a8a8a" text-anchor="start">Mostrando 1–8 de 42 productos</text><rect x="960" y="655" width="90" height="30" rx="4" fill="#ffffff" stroke="#2b2b2b" stroke-width="1.2"/><text x="1005.0" y="674.0" font-family="Helvetica, Arial, sans-serif" font-size="12" font-weight="600" fill="#2b2b2b" text-anchor="middle">‹ Anterior</text><rect x="1060" y="655" width="90" height="30" rx="4" fill="#ffffff" stroke="#2b2b2b" stroke-width="1.2"/><text x="1105.0" y="674.0" font-family="Helvetica, Arial, sans-serif" font-size="12" font-weight="600" fill="#2b2b2b" text-anchor="middle">Siguiente ›</text><text x="24" y="880" font-family="Helvetica, Arial, sans-serif" font-size="15" font-weight="700" fill="#2b2b2b" text-anchor="start">Módulo: Productos  ·  Gestión de productos — Listado</text><text x="24" y="900" font-family="Helvetica, Arial, sans-serif" font-size="11" font-weight="normal" fill="#8a8a8a" text-anchor="start">Wireframe de baja fidelidad — solo referencia de estructura y contenido, no de estilo visual final.</text></svg>