<svg xmlns="http://www.w3.org/2000/svg" viewBox="0 0 1200 920" width="1200" height="920"><rect x="0" y="0" width="1200" height="920" fill="#ffffff"/><rect x="0" y="0" width="1200" height="56" rx="0" fill="#ffffff" stroke="#bdbdbd" stroke-width="1"/><line x1="0" y1="56" x2="1200" y2="56" stroke="#bdbdbd" stroke-width="1.5"/><rect x="24" y="16" width="24" height="24" rx="3" fill="none" stroke="#8a8a8a" stroke-width="1.2"/><text x="60" y="34" font-family="Helvetica, Arial, sans-serif" font-size="15" font-weight="700" fill="#2b2b2b" text-anchor="start">Sistema de Gestión de Inventarios</text><rect x="1140" y="16" width="24" height="24" rx="3" fill="none" stroke="#8a8a8a" stroke-width="1.2"/><text x="1124" y="34" font-family="Helvetica, Arial, sans-serif" font-size="11" font-weight="normal" fill="#8a8a8a" text-anchor="end">Nombre Usuario · Rol</text><rect x="0" y="56" width="210" height="794" rx="0" fill="#fafafa" stroke="#bdbdbd" stroke-width="1"/><rect x="24" y="70" width="14" height="14" rx="3" fill="none" stroke="#8a8a8a" stroke-width="1.2"/><text x="50" y="85" font-family="Helvetica, Arial, sans-serif" font-size="12.5" font-weight="normal" fill="#555" text-anchor="start">Panel principal</text><rect x="24" y="112" width="14" height="14" rx="3" fill="none" stroke="#8a8a8a" stroke-width="1.2"/><text x="50" y="127" font-family="Helvetica, Arial, sans-serif" font-size="12.5" font-weight="normal" fill="#555" text-anchor="start">Productos</text><rect x="24" y="154" width="14" height="14" rx="3" fill="none" stroke="#8a8a8a" stroke-width="1.2"/><text x="50" y="169" font-family="Helvetica, Arial, sans-serif" font-size="12.5" font-weight="normal" fill="#555" text-anchor="start">Categorías</text><rect x="10" y="190" width="190" height="30" rx="4" fill="#e7ebee" stroke="none" stroke-width="1.5"/><rect x="24" y="196" width="14" height="14" rx="3" fill="none" stroke="#8a8a8a" stroke-width="1.2"/><text x="50" y="211" font-family="Helvetica, Arial, sans-serif" font-size="12.5" font-weight="600" fill="#2b2b2b" text-anchor="start">Inventario</text><rect x="24" y="238" width="14" height="14" rx="3" fill="none" stroke="#8a8a8a" stroke-width="1.2"/><text x="50" y="253" font-family="Helvetica, Arial, sans-serif" font-size="12.5" font-weight="normal" fill="#555" text-anchor="start">Movimientos</text><rect x="24" y="280" width="14" height="14" rx="3" fill="none" stroke="#8a8a8a" stroke-width="1.2"/><text x="50" y="295" font-family="Helvetica, Arial, sans-serif" font-size="12.5" font-weight="normal" fill="#555" text-anchor="start">Usuarios</text><rect x="24" y="322" width="14" height="14" rx="3" fill="none" stroke="#8a8a8a" stroke-width="1.2"/><text x="50" y="337" font-family="Helvetica, Arial, sans-serif" font-size="12.5" font-weight="normal" fill="#555" text-anchor="start">Auditoría</text><text x="240" y="100" font-family="Helvetica, Arial, sans-serif" font-size="20" font-weight="700" fill="#2b2b2b" text-anchor="start">Inventario</text><text x="240" y="122" font-family="Helvetica, Arial, sans-serif" font-size="11.5" font-weight="normal" fill="#8a8a8a" text-anchor="start">Existencias actuales por producto</text><text x="240" y="154" font-family="Helvetica, Arial, sans-serif" font-size="11" font-weight="normal" fill="#8a8a8a" text-anchor="start">Buscar producto</text><rect x="240" y="160" width="320" height="34" rx="3" fill="#ffffff" stroke="#bdbdbd" stroke-width="1.2"/><rect x="580" y="143" width="200" height="34" rx="4" fill="#ffffff" stroke="#bdbdbd" stroke-width="1.2"/><text x="590" y="165" font-family="Helvetica, Arial, sans-serif" font-size="11" font-weight="normal" fill="#555" text-anchor="start">Solo existencias bajas ▾</text><rect x="240" y="210" width="930" height="480" rx="0" fill="#ffffff" stroke="#bdbdbd" stroke-width="1.2"/><rect x="240" y="210" width="930" height="34" rx="0" fill="#eef0f2" stroke="#bdbdbd" stroke-width="1"/><text x="250" y="232" font-family="Helvetica, Arial, sans-serif" font-size="11.5" font-weight="700" fill="#444" text-anchor="start">Producto</text><text x="547.6" y="232" font-family="Helvetica, Arial, sans-serif" font-size="11.5" font-weight="700" fill="#444" text-anchor="start">Categoría</text><text x="733.6" y="232" font-family="Helvetica, Arial, sans-serif" font-size="11.5" font-weight="700" fill="#444" text-anchor="start">Existencia actual</text><text x="901.0" y="232" font-family="Helvetica, Arial, sans-serif" font-size="11.5" font-weight="700" fill="#444" text-anchor="start">Mínimo</text><text x="1040.5" y="232" font-family="Helvetica, Arial, sans-serif" font-size="11.5" font-weight="700" fill="#444" text-anchor="start">Estado</text><line x1="240" y1="244.0" x2="1170" y2="244.0" stroke="#e5e5e5" stroke-width="1"/><rect x="250" y="264.77777777777777" width="166.56" height="7" rx="0" fill="#f4f4f4" stroke="none" stroke-width="1.5"/><rect x="547.6" y="264.77777777777777" width="99.6" height="7" rx="0" fill="#f4f4f4" stroke="none" stroke-width="1.5"/><rect x="733.6" y="264.77777777777777" width="88.44" height="7" rx="0" fill="#f4f4f4" stroke="none" stroke-width="1.5"/><rect x="901.0" y="264.77777777777777" width="71.7" height="7" rx="0" fill="#f4f4f4" stroke="none" stroke-width="1.5"/><rect x="1040.5" y="264.77777777777777" width="71.7" height="7" rx="0" fill="#f4f4f4" stroke="none" stroke-width="1.5"/><line x1="240" y1="293.55555555555554" x2="1170" y2="293.55555555555554" stroke="#e5e5e5" stroke-width="1"/><rect x="250" y="314.3333333333333" width="166.56" height="7" rx="0" fill="#f4f4f4" stroke="none" stroke-width="1.5"/><rect x="547.6" y="314.3333333333333" width="99.6" height="7" rx="0" fill="#f4f4f4" stroke="none" stroke-width="1.5"/><rect x="733.6" y="314.3333333333333" width="88.44" height="7" rx="0" fill="#f4f4f4" stroke="none" stroke-width="1.5"/><rect x="901.0" y="314.3333333333333" width="71.7" height="7" rx="0" fill="#f4f4f4" stroke="none" stroke-width="1.5"/><rect x="1040.5" y="314.3333333333333" width="71.7" height="7" rx="0" fill="#f4f4f4" stroke="none" stroke-width="1.5"/><line x1="240" y1="343.1111111111111" x2="1170" y2="343.1111111111111" stroke="#e5e5e5" stroke-width="1"/><rect x="250" y="363.88888888888886" width="166.56" height="7" rx="0" fill="#f4f4f4" stroke="none" stroke-width="1.5"/><rect x="547.6" y="363.88888888888886" width="99.6" height="7" rx="0" fill="#f4f4f4" stroke="none" stroke-width="1.5"/><rect x="733.6" y="363.88888888888886" width="88.44" height="7" rx="0" fill="#f4f4f4" stroke="none" stroke-width="1.5"/><rect x="901.0" y="363.88888888888886" width="71.7" height="7" rx="0" fill="#f4f4f4" stroke="none" stroke-width="1.5"/><rect x="1040.5" y="363.88888888888886" width="71.7" height="7" rx="0" fill="#f4f4f4" stroke="none" stroke-width="1.5"/><line x1="240" y1="392.6666666666667" x2="1170" y2="392.6666666666667" stroke="#e5e5e5" stroke-width="1"/><rect x="250" y="413.44444444444446" width="166.56" height="7" rx="0" fill="#f4f4f4" stroke="none" stroke-width="1.5"/><rect x="547.6" y="413.44444444444446" width="99.6" height="7" rx="0" fill="#f4f4f4" stroke="none" stroke-width="1.5"/><rect x="733.6" y="413.44444444444446" width="88.44" height="7" rx="0" fill="#f4f4f4" stroke="none" stroke-width="1.5"/><rect x="901.0" y="413.44444444444446" width="71.7" height="7" rx="0" fill="#f4f4f4" stroke="none" stroke-width="1.5"/><rect x="1040.5" y="413.44444444444446" width="71.7" height="7" rx="0" fill="#f4f4f4" stroke="none" stroke-width="1.5"/><line x1="240" y1="442.22222222222223" x2="1170" y2="442.22222222222223" stroke="#e5e5e5" stroke-width="1"/><rect x="250" y="463.0" width="166.56" height="7" rx="0" fill="#f4f4f4" stroke="none" stroke-width="1.5"/><rect x="547.6" y="463.0" width="99.6" height="7" rx="0" fill="#f4f4f4" stroke="none" stroke-width="1.5"/><rect x="733.6" y="463.0" width="88.44" height="7" rx="0" fill="#f4f4f4" stroke="none" stroke-width="1.5"/><rect x="901.0" y="463.0" width="71.7" height="7" rx="0" fill="#f4f4f4" stroke="none" stroke-width="1.5"/><rect x="1040.5" y="463.0" width="71.7" height="7" rx="0" fill="#f4f4f4" stroke="none" stroke-width="1.5"/><line x1="240" y1="491.77777777777777" x2="1170" y2="491.77777777777777" stroke="#e5e5e5" stroke-width="1"/><rect x="250" y="512.5555555555555" width="166.56" height="7" rx="0" fill="#f4f4f4" stroke="none" stroke-width="1.5"/><rect x="547.6" y="512.5555555555555" width="99.6" height="7" rx="0" fill="#f4f4f4" stroke="none" stroke-width="1.5"/><rect x="733.6" y="512.5555555555555" width="88.44" height="7" rx="0" fill="#f4f4f4" stroke="none" stroke-width="1.5"/><rect x="901.0" y="512.5555555555555" width="71.7" height="7" rx="0" fill="#f4f4f4" stroke="none" stroke-width="1.5"/><rect x="1040.5" y="512.5555555555555" width="71.7" height="7" rx="0" fill="#f4f4f4" stroke="none" stroke-width="1.5"/><line x1="240" y1="541.3333333333334" x2="1170" y2="541.3333333333334" stroke="#e5e5e5" stroke-width="1"/><rect x="250" y="562.1111111111112" width="166.56" height="7" rx="0" fill="#f4f4f4" stroke="none" stroke-width="1.5"/><rect x="547.6" y="562.1111111111112" width="99.6" height="7" rx="0" fill="#f4f4f4" stroke="none" stroke-width="1.5"/><rect x="733.6" y="562.1111111111112" width="88.44" height="7" rx="0" fill="#f4f4f4" stroke="none" stroke-width="1.5"/><rect x="901.0" y="562.1111111111112" width="71.7" height="7" rx="0" fill="#f4f4f4" stroke="none" stroke-width="1.5"/><rect x="1040.5" y="562.1111111111112" width="71.7" height="7" rx="0" fill="#f4f4f4" stroke="none" stroke-width="1.5"/><line x1="240" y1="590.8888888888889" x2="1170" y2="590.8888888888889" stroke="#e5e5e5" stroke-width="1"/><rect x="250" y="611.6666666666667" width="166.56" height="7" rx="0" fill="#f4f4f4" stroke="none" stroke-width="1.5"/><rect x="547.6" y="611.6666666666667" width="99.6" height="7" rx="0" fill="#f4f4f4" stroke="none" stroke-width="1.5"/><rect x="733.6" y="611.6666666666667" width="88.44" height="7" rx="0" fill="#f4f4f4" stroke="none" stroke-width="1.5"/><rect x="901.0" y="611.6666666666667" width="71.7" height="7" rx="0" fill="#f4f4f4" stroke="none" stroke-width="1.5"/><rect x="1040.5" y="611.6666666666667" width="71.7" height="7" rx="0" fill="#f4f4f4" stroke="none" stroke-width="1.5"/><line x1="240" y1="640.4444444444445" x2="1170" y2="640.4444444444445" stroke="#e5e5e5" stroke-width="1"/><rect x="250" y="661.2222222222223" width="166.56" height="7" rx="0" fill="#f4f4f4" stroke="none" stroke-width="1.5"/><rect x="547.6" y="661.2222222222223" width="99.6" height="7" rx="0" fill="#f4f4f4" stroke="none" stroke-width="1.5"/><rect x="733.6" y="661.2222222222223" width="88.44" height="7" rx="0" fill="#f4f4f4" stroke="none" stroke-width="1.5"/><rect x="901.0" y="661.2222222222223" width="71.7" height="7" rx="0" fill="#f4f4f4" stroke="none" stroke-width="1.5"/><rect x="1040.5" y="661.2222222222223" width="71.7" height="7" rx="0" fill="#f4f4f4" stroke="none" stroke-width="1.5"/><line x1="537.6" y1="244" x2="537.6" y2="690" stroke="#eeeeee" stroke-width="1"/><line x1="723.6" y1="244" x2="723.6" y2="690" stroke="#eeeeee" stroke-width="1"/><line x1="891.0" y1="244" x2="891.0" y2="690" stroke="#eeeeee" stroke-width="1"/><line x1="1030.5" y1="244" x2="1030.5" y2="690" stroke="#eeeeee" stroke-width="1"/><rect x="240" y="705" width="125.60000000000001" height="20" rx="10" fill="none" stroke="#4c8c5b" stroke-width="1.2"/><text x="302.8" y="719" font-family="Helvetica, Arial, sans-serif" font-size="10.5" font-weight="600" fill="#4c8c5b" text-anchor="middle">Estado: Disponible</text><rect x="430" y="705" width="131.8" height="20" rx="10" fill="none" stroke="#c05a3a" stroke-width="1.2"/><text x="495.9" y="719" font-family="Helvetica, Arial, sans-serif" font-size="10.5" font-weight="600" fill="#c05a3a" text-anchor="middle">Estado: Bajo mínimo</text><text x="24" y="880" font-family="Helvetica, Arial, sans-serif" font-size="15" font-weight="700" fill="#2b2b2b" text-anchor="start">Módulo: Inventario  ·  Consulta de inventario y existencias</text><text x="24" y="900" font-family="Helvetica, Arial, sans-serif" font-size="11" font-weight="normal" fill="#8a8a8a" text-anchor="start">Wireframe de baja fidelidad — solo referencia de estructura y contenido, no de estilo visual final.</text></svg>