<svg xmlns="http://www.w3.org/2000/svg" viewBox="0 0 1200 920" width="1200" height="920"><rect x="0" y="0" width="1200" height="920" fill="#ffffff"/><rect x="0" y="0" width="1200" height="56" rx="0" fill="#ffffff" stroke="#bdbdbd" stroke-width="1"/><line x1="0" y1="56" x2="1200" y2="56" stroke="#bdbdbd" stroke-width="1.5"/><rect x="24" y="16" width="24" height="24" rx="3" fill="none" stroke="#8a8a8a" stroke-width="1.2"/><text x="60" y="34" font-family="Helvetica, Arial, sans-serif" font-size="15" font-weight="700" fill="#2b2b2b" text-anchor="start">Sistema de Gestión de Inventarios</text><rect x="1140" y="16" width="24" height="24" rx="3" fill="none" stroke="#8a8a8a" stroke-width="1.2"/><text x="1124" y="34" font-family="Helvetica, Arial, sans-serif" font-size="11" font-weight="normal" fill="#8a8a8a" text-anchor="end">Nombre Usuario · Rol</text><rect x="0" y="56" width="210" height="794" rx="0" fill="#fafafa" stroke="#bdbdbd" stroke-width="1"/><rect x="24" y="70" width="14" height="14" rx="3" fill="none" stroke="#8a8a8a" stroke-width="1.2"/><text x="50" y="85" font-family="Helvetica, Arial, sans-serif" font-size="12.5" font-weight="normal" fill="#555" text-anchor="start">Panel principal</text><rect x="24" y="112" width="14" height="14" rx="3" fill="none" stroke="#8a8a8a" stroke-width="1.2"/><text x="50" y="127" font-family="Helvetica, Arial, sans-serif" font-size="12.5" font-weight="normal" fill="#555" text-anchor="start">Productos</text><rect x="24" y="154" width="14" height="14" rx="3" fill="none" stroke="#8a8a8a" stroke-width="1.2"/><text x="50" y="169" font-family="Helvetica, Arial, sans-serif" font-size="12.5" font-weight="normal" fill="#555" text-anchor="start">Categorías</text><rect x="24" y="196" width="14" height="14" rx="3" fill="none" stroke="#8a8a8a" stroke-width="1.2"/><text x="50" y="211" font-family="Helvetica, Arial, sans-serif" font-size="12.5" font-weight="normal" fill="#555" text-anchor="start">Inventario</text><rect x="24" y="238" width="14" height="14" rx="3" fill="none" stroke="#8a8a8a" stroke-width="1.2"/><text x="50" y="253" font-family="Helvetica, Arial, sans-serif" font-size="12.5" font-weight="normal" fill="#555" text-anchor="start">Movimientos</text><rect x="24" y="280" width="14" height="14" rx="3" fill="none" stroke="#8a8a8a" stroke-width="1.2"/><text x="50" y="295" font-family="Helvetica, Arial, sans-serif" font-size="12.5" font-weight="normal" fill="#555" text-anchor="start">Usuarios</text><rect x="10" y="316" width="190" height="30" rx="4" fill="#e7ebee" stroke="none" stroke-width="1.5"/><rect x="24" y="322" width="14" height="14" rx="3" fill="none" stroke="#8a8a8a" stroke-width="1.2"/><text x="50" y="337" font-family="Helvetica, Arial, sans-serif" font-size="12.5" font-weight="600" fill="#2b2b2b" text-anchor="start">Auditoría</text><text x="240" y="100" font-family="Helvetica, Arial, sans-serif" font-size="20" font-weight="700" fill="#2b2b2b" text-anchor="start">Historial de movimientos</text><text x="240" y="139" font-family="Helvetica, Arial, sans-serif" font-size="11" font-weight="normal" fill="#8a8a8a" text-anchor="start">Buscar por producto</text><rect x="240" y="145" width="260" height="34" rx="3" fill="#ffffff" stroke="#bdbdbd" stroke-width="1.2"/><rect x="520" y="128" width="160" height="34" rx="4" fill="#ffffff" stroke="#bdbdbd" stroke-width="1.2"/><text x="530" y="150" font-family="Helvetica, Arial, sans-serif" font-size="11.5" font-weight="normal" fill="#555" text-anchor="start">Tipo ▾</text><rect x="690" y="128" width="200" height="34" rx="4" fill="#ffffff" stroke="#bdbdbd" stroke-width="1.2"/><text x="700" y="150" font-family="Helvetica, Arial, sans-serif" font-size="11.5" font-weight="normal" fill="#555" text-anchor="start">Rango de fechas ▾</text><rect x="1020" y="128" width="150" height="34" rx="4" fill="#ffffff" stroke="#2b2b2b" stroke-width="1.2"/><text x="1095.0" y="149.0" font-family="Helvetica, Arial, sans-serif" font-size="12" font-weight="600" fill="#2b2b2b" text-anchor="middle">Exportar</text><rect x="240" y="195" width="930" height="460" rx="0" fill="#ffffff" stroke="#bdbdbd" stroke-width="1.2"/><rect x="240" y="195" width="930" height="34" rx="0" fill="#eef0f2" stroke="#bdbdbd" stroke-width="1"/><text x="250" y="217" font-family="Helvetica, Arial, sans-serif" font-size="11.5" font-weight="700" fill="#444" text-anchor="start">Fecha y hora</text><text x="408.1" y="217" font-family="Helvetica, Arial, sans-serif" font-size="11.5" font-weight="700" fill="#444" text-anchor="start">Usuario</text><text x="575.5" y="217" font-family="Helvetica, Arial, sans-serif" font-size="11.5" font-weight="700" fill="#444" text-anchor="start">Producto</text><text x="808.0" y="217" font-family="Helvetica, Arial, sans-serif" font-size="11.5" font-weight="700" fill="#444" text-anchor="start">Tipo</text><text x="919.6" y="217" font-family="Helvetica, Arial, sans-serif" font-size="11.5" font-weight="700" fill="#444" text-anchor="start">Cantidad</text><text x="1031.2" y="217" font-family="Helvetica, Arial, sans-serif" font-size="11.5" font-weight="700" fill="#444" text-anchor="start">Existencia resultante</text><line x1="240" y1="229.0" x2="1170" y2="229.0" stroke="#e5e5e5" stroke-width="1"/><rect x="250" y="248.66666666666666" width="82.86000000000001" height="7" rx="0" fill="#f4f4f4" stroke="none" stroke-width="1.5"/><rect x="408.1" y="248.66666666666666" width="88.44" height="7" rx="0" fill="#f4f4f4" stroke="none" stroke-width="1.5"/><rect x="575.5" y="248.66666666666666" width="127.5" height="7" rx="0" fill="#f4f4f4" stroke="none" stroke-width="1.5"/><rect x="808.0" y="248.66666666666666" width="54.959999999999994" height="7" rx="0" fill="#f4f4f4" stroke="none" stroke-width="1.5"/><rect x="919.6" y="248.66666666666666" width="54.959999999999994" height="7" rx="0" fill="#f4f4f4" stroke="none" stroke-width="1.5"/><rect x="1031.2" y="248.66666666666666" width="77.28" height="7" rx="0" fill="#f4f4f4" stroke="none" stroke-width="1.5"/><line x1="240" y1="276.3333333333333" x2="1170" y2="276.3333333333333" stroke="#e5e5e5" stroke-width="1"/><rect x="250" y="296.0" width="82.86000000000001" height="7" rx="0" fill="#f4f4f4" stroke="none" stroke-width="1.5"/><rect x="408.1" y="296.0" width="88.44" height="7" rx="0" fill="#f4f4f4" stroke="none" stroke-width="1.5"/><rect x="575.5" y="296.0" width="127.5" height="7" rx="0" fill="#f4f4f4" stroke="none" stroke-width="1.5"/><rect x="808.0" y="296.0" width="54.959999999999994" height="7" rx="0" fill="#f4f4f4" stroke="none" stroke-width="1.5"/><rect x="919.6" y="296.0" width="54.959999999999994" height="7" rx="0" fill="#f4f4f4" stroke="none" stroke-width="1.5"/><rect x="1031.2" y="296.0" width="77.28" height="7" rx="0" fill="#f4f4f4" stroke="none" stroke-width="1.5"/><line x1="240" y1="323.6666666666667" x2="1170" y2="323.6666666666667" stroke="#e5e5e5" stroke-width="1"/><rect x="250" y="343.33333333333337" width="82.86000000000001" height="7" rx="0" fill="#f4f4f4" stroke="none" stroke-width="1.5"/><rect x="408.1" y="343.33333333333337" width="88.44" height="7" rx="0" fill="#f4f4f4" stroke="none" stroke-width="1.5"/><rect x="575.5" y="343.33333333333337" width="127.5" height="7" rx="0" fill="#f4f4f4" stroke="none" stroke-width="1.5"/><rect x="808.0" y="343.33333333333337" width="54.959999999999994" height="7" rx="0" fill="#f4f4f4" stroke="none" stroke-width="1.5"/><rect x="919.6" y="343.33333333333337" width="54.959999999999994" height="7" rx="0" fill="#f4f4f4" stroke="none" stroke-width="1.5"/><rect x="1031.2" y="343.33333333333337" width="77.28" height="7" rx="0" fill="#f4f4f4" stroke="none" stroke-width="1.5"/><line x1="240" y1="371.0" x2="1170" y2="371.0" stroke="#e5e5e5" stroke-width="1"/><rect x="250" y="390.6666666666667" width="82.86000000000001" height="7" rx="0" fill="#f4f4f4" stroke="none" stroke-width="1.5"/><rect x="408.1" y="390.6666666666667" width="88.44" height="7" rx="0" fill="#f4f4f4" stroke="none" stroke-width="1.5"/><rect x="575.5" y="390.6666666666667" width="127.5" height="7" rx="0" fill="#f4f4f4" stroke="none" stroke-width="1.5"/><rect x="808.0" y="390.6666666666667" width="54.959999999999994" height="7" rx="0" fill="#f4f4f4" stroke="none" stroke-width="1.5"/><rect x="919.6" y="390.6666666666667" width="54.959999999999994" height="7" rx="0" fill="#f4f4f4" stroke="none" stroke-width="1.5"/><rect x="1031.2" y="390.6666666666667" width="77.28" height="7" rx="0" fill="#f4f4f4" stroke="none" stroke-width="1.5"/><line x1="240" y1="418.33333333333337" x2="1170" y2="418.33333333333337" stroke="#e5e5e5" stroke-width="1"/><rect x="250" y="438.00000000000006" width="82.86000000000001" height="7" rx="0" fill="#f4f4f4" stroke="none" stroke-width="1.5"/><rect x="408.1" y="438.00000000000006" width="88.44" height="7" rx="0" fill="#f4f4f4" stroke="none" stroke-width="1.5"/><rect x="575.5" y="438.00000000000006" width="127.5" height="7" rx="0" fill="#f4f4f4" stroke="none" stroke-width="1.5"/><rect x="808.0" y="438.00000000000006" width="54.959999999999994" height="7" rx="0" fill="#f4f4f4" stroke="none" stroke-width="1.5"/><rect x="919.6" y="438.00000000000006" width="54.959999999999994" height="7" rx="0" fill="#f4f4f4" stroke="none" stroke-width="1.5"/><rect x="1031.2" y="438.00000000000006" width="77.28" height="7" rx="0" fill="#f4f4f4" stroke="none" stroke-width="1.5"/><line x1="240" y1="465.6666666666667" x2="1170" y2="465.6666666666667" stroke="#e5e5e5" stroke-width="1"/><rect x="250" y="485.33333333333337" width="82.86000000000001" height="7" rx="0" fill="#f4f4f4" stroke="none" stroke-width="1.5"/><rect x="408.1" y="485.33333333333337" width="88.44" height="7" rx="0" fill="#f4f4f4" stroke="none" stroke-width="1.5"/><rect x="575.5" y="485.33333333333337" width="127.5" height="7" rx="0" fill="#f4f4f4" stroke="none" stroke-width="1.5"/><rect x="808.0" y="485.33333333333337" width="54.959999999999994" height="7" rx="0" fill="#f4f4f4" stroke="none" stroke-width="1.5"/><rect x="919.6" y="485.33333333333337" width="54.959999999999994" height="7" rx="0" fill="#f4f4f4" stroke="none" stroke-width="1.5"/><rect x="1031.2" y="485.33333333333337" width="77.28" height="7" rx="0" fill="#f4f4f4" stroke="none" stroke-width="1.5"/><line x1="240" y1="513.0" x2="1170" y2="513.0" stroke="#e5e5e5" stroke-width="1"/><rect x="250" y="532.6666666666666" width="82.86000000000001" height="7" rx="0" fill="#f4f4f4" stroke="none" stroke-width="1.5"/><rect x="408.1" y="532.6666666666666" width="88.44" height="7" rx="0" fill="#f4f4f4" stroke="none" stroke-width="1.5"/><rect x="575.5" y="532.6666666666666" width="127.5" height="7" rx="0" fill="#f4f4f4" stroke="none" stroke-width="1.5"/><rect x="808.0" y="532.6666666666666" width="54.959999999999994" height="7" rx="0" fill="#f4f4f4" stroke="none" stroke-width="1.5"/><rect x="919.6" y="532.6666666666666" width="54.959999999999994" height="7" rx="0" fill="#f4f4f4" stroke="none" stroke-width="1.5"/><rect x="1031.2" y="532.6666666666666" width="77.28" height="7" rx="0" fill="#f4f4f4" stroke="none" stroke-width="1.5"/><line x1="240" y1="560.3333333333334" x2="1170" y2="560.3333333333334" stroke="#e5e5e5" stroke-width="1"/><rect x="250" y="580.0" width="82.86000000000001" height="7" rx="0" fill="#f4f4f4" stroke="none" stroke-width="1.5"/><rect x="408.1" y="580.0" width="88.44" height="7" rx="0" fill="#f4f4f4" stroke="none" stroke-width="1.5"/><rect x="575.5" y="580.0" width="127.5" height="7" rx="0" fill="#f4f4f4" stroke="none" stroke-width="1.5"/><rect x="808.0" y="580.0" width="54.959999999999994" height="7" rx="0" fill="#f4f4f4" stroke="none" stroke-width="1.5"/><rect x="919.6" y="580.0" width="54.959999999999994" height="7" rx="0" fill="#f4f4f4" stroke="none" stroke-width="1.5"/><rect x="1031.2" y="580.0" width="77.28" height="7" rx="0" fill="#f4f4f4" stroke="none" stroke-width="1.5"/><line x1="240" y1="607.6666666666667" x2="1170" y2="607.6666666666667" stroke="#e5e5e5" stroke-width="1"/><rect x="250" y="627.3333333333334" width="82.86000000000001" height="7" rx="0" fill="#f4f4f4" stroke="none" stroke-width="1.5"/><rect x="408.1" y="627.3333333333334" width="88.44" height="7" rx="0" fill="#f4f4f4" stroke="none" stroke-width="1.5"/><rect x="575.5" y="627.3333333333334" width="127.5" height="7" rx="0" fill="#f4f4f4" stroke="none" stroke-width="1.5"/><rect x="808.0" y="627.3333333333334" width="54.959999999999994" height="7" rx="0" fill="#f4f4f4" stroke="none" stroke-width="1.5"/><rect x="919.6" y="627.3333333333334" width="54.959999999999994" height="7" rx="0" fill="#f4f4f4" stroke="none" stroke-width="1.5"/><rect x="1031.2" y="627.3333333333334" width="77.28" height="7" rx="0" fill="#f4f4f4" stroke="none" stroke-width="1.5"/><line x1="398.1" y1="229" x2="398.1" y2="655" stroke="#eeeeee" stroke-width="1"/><line x1="565.5" y1="229" x2="565.5" y2="655" stroke="#eeeeee" stroke-width="1"/><line x1="798.0" y1="229" x2="798.0" y2="655" stroke="#eeeeee" stroke-width="1"/><line x1="909.6" y1="229" x2="909.6" y2="655" stroke="#eeeeee" stroke-width="1"/><line x1="1021.2" y1="229" x2="1021.2" y2="655" stroke="#eeeeee" stroke-width="1"/><text x="24" y="834" font-family="Helvetica, Arial, sans-serif" font-size="10.5" font-weight="normal" fill="#8a8a8a" text-anchor="start">Cada registro conserva usuario, fecha y operación para fines de auditoría (trazabilidad).</text><text x="24" y="880" font-family="Helvetica, Arial, sans-serif" font-size="15" font-weight="700" fill="#2b2b2b" text-anchor="start">Módulo: Movimientos / Auditoría / Búsqueda  ·  Historial de movimientos y auditoría</text><text x="24" y="900" font-family="Helvetica, Arial, sans-serif" font-size="11" font-weight="normal" fill="#8a8a8a" text-anchor="start">Wireframe de baja fidelidad — solo referencia de estructura y contenido, no de estilo visual final.</text></svg>